<?xml version="1.0" encoding="UTF-8"?>
<svg width="122px" height="122px" viewBox="0 0 122 122" version="1.1" xmlns="http://www.w3.org/2000/svg" xmlns:xlink="http://www.w3.org/1999/xlink">
    <title>WoHPattern_build - Smaller</title>
    <g id="WoHPattern_build---Smaller" stroke="none" stroke-width="1" fill="none" fill-rule="evenodd">
        <g id="WoHPatter_starter_tile" stroke="#F5F7FA" stroke-width="0.61">
            <polyline id="Stroke-8" points="24.1506445 85.1505574 0 60.9998817 61.0001972 0 122 60.9998817 97.8493555 85.1505574"></polyline>
            <polyline id="Stroke-10" points="61.0000394 3.94425588e-05 61.0000394 48.3009965 24.1504867 85.1505968"></polyline>
            <line x1="12.6989477" y1="48.3011542" x2="36.8495922" y2="72.45183" id="Stroke-11"></line>
            <line x1="97.8493949" y1="85.1505574" x2="60.9998422" y2="48.300957" id="Stroke-12"></line>
            <line x1="73.6988688" y1="61" x2="97.8495133" y2="36.8493243" id="Stroke-13"></line>
            <line x1="110.548264" y1="72.4517116" x2="86.3976192" y2="48.3010359" id="Stroke-14"></line>
            <polygon id="Stroke-36" points="61.0000394 122 24.1504867 85.1503996 61.0000394 48.3011937 97.8495922 85.1503996"></polygon>
            <line x1="73.6988688" y1="61.0001578" x2="36.8493161" y2="97.8497581" id="Stroke-37"></line>
            <line x1="73.6988688" y1="109.301273" x2="49.5482243" y2="85.1505968" id="Stroke-38"></line>
        </g>
        <g id="WoHPatter_starter_tile-Copy" transform="translate(61.000000, -61.000000)" stroke="#F5F7FA" stroke-width="0.61">
            <polyline id="Stroke-8" points="24.1506445 85.1505574 0 60.9998817 61.0001972 0 122 60.9998817 97.8493555 85.1505574"></polyline>
            <polyline id="Stroke-10" points="61.0000394 3.94425588e-05 61.0000394 48.3009965 24.1504867 85.1505968"></polyline>
            <line x1="12.6989477" y1="48.3011542" x2="36.8495922" y2="72.45183" id="Stroke-11"></line>
            <line x1="97.8493949" y1="85.1505574" x2="60.9998422" y2="48.300957" id="Stroke-12"></line>
            <polygon id="Stroke-36" points="61.0000394 122 24.1504867 85.1503996 61.0000394 48.3011937 97.8495922 85.1503996"></polygon>
            <line x1="73.6988688" y1="61.0001578" x2="36.8493161" y2="97.8497581" id="Stroke-37"></line>
            <line x1="73.6988688" y1="109.301273" x2="49.5482243" y2="85.1505968" id="Stroke-38"></line>
        </g>
        <g id="WoHPatter_starter_tile-Copy-3" transform="translate(-61.000000, -61.000000)" stroke="#F5F7FA" stroke-width="0.61">
            <polyline id="Stroke-8" points="24.1506445 85.1505574 0 60.9998817 61.0001972 0 122 60.9998817 97.8493555 85.1505574"></polyline>
            <polyline id="Stroke-10" points="61.0000394 3.94425588e-05 61.0000394 48.3009965 24.1504867 85.1505968"></polyline>
            <line x1="97.8493949" y1="85.1505574" x2="60.9998422" y2="48.300957" id="Stroke-12"></line>
            <line x1="110.548264" y1="72.4517116" x2="86.3976192" y2="48.3010359" id="Stroke-14"></line>
            <polygon id="Stroke-36" points="61.0000394 122 24.1504867 85.1503996 61.0000394 48.3011937 97.8495922 85.1503996"></polygon>
            <line x1="73.6988688" y1="61.0001578" x2="36.8493161" y2="97.8497581" id="Stroke-37"></line>
            <line x1="73.6988688" y1="109.301273" x2="49.5482243" y2="85.1505968" id="Stroke-38"></line>
        </g>
        <g id="WoHPatter_starter_tile-Copy-2" transform="translate(61.000000, 61.000000)" stroke="#F5F7FA" stroke-width="0.61">
            <polyline id="Stroke-8" points="24.1506445 85.1505574 0 60.9998817 61.0001972 0 122 60.9998817 97.8493555 85.1505574"></polyline>
            <polyline id="Stroke-10" points="61.0000394 3.94425588e-05 61.0000394 48.3009965 24.1504867 85.1505968"></polyline>
            <line x1="12.6989477" y1="48.3011542" x2="36.8495922" y2="72.45183" id="Stroke-11"></line>
            <line x1="97.8493949" y1="85.1505574" x2="60.9998422" y2="48.300957" id="Stroke-12"></line>
            <polygon id="Stroke-36" points="61.0000394 122 24.1504867 85.1503996 61.0000394 48.3011937 97.8495922 85.1503996"></polygon>
        </g>
        <g id="WoHPatter_starter_tile-Copy-4" transform="translate(-61.000000, 61.000000)" stroke="#F5F7FA" stroke-width="0.61">
            <polyline id="Stroke-8" points="24.1506445 85.1505574 0 60.9998817 61.0001972 0 122 60.9998817 97.8493555 85.1505574"></polyline>
            <polyline id="Stroke-10" points="61.0000394 3.94425588e-05 61.0000394 48.3009965 24.1504867 85.1505968"></polyline>
            <line x1="97.8493949" y1="85.1505574" x2="60.9998422" y2="48.300957" id="Stroke-12"></line>
            <line x1="73.6988688" y1="61" x2="97.8495133" y2="36.8493243" id="Stroke-13"></line>
            <line x1="110.548264" y1="72.4517116" x2="86.3976192" y2="48.3010359" id="Stroke-14"></line>
            <polygon id="Stroke-36" points="61.0000394 122 24.1504867 85.1503996 61.0000394 48.3011937 97.8495922 85.1503996"></polygon>
        </g>
    </g>
</svg>