<svg width="1440" height="48" viewBox="0 0 1440 48" xmlns="http://www.w3.org/2000/svg" xmlns:xlink="http://www.w3.org/1999/xlink"><defs><path id="a" d="M0 0h1440v48H0z"/></defs><g fill="none" fill-rule="evenodd"><mask id="b" fill="#fff"><use xlink:href="#a"/></mask><g mask="url(#b)" fill="#FFF"><path d="M0 24h672v1H0zm768 0h672v1H768zM720 0l-11.314 11.315 4.753 4.753-.639.638-.093.094-.639.64-4.753-4.754L696 24.001l11.315 11.313 4.753-4.753.64.639.092.094.64.64-4.754 4.752L720 48l11.315-11.314-4.753-4.753.64-.64.092-.093.64-.64 4.752 4.754L744.001 24l-11.315-11.315-4.753 4.753-.64-.639-.092-.094-.64-.638 4.754-4.753L720 0Zm-9.849 11.315 9.85-9.85 9.849 9.85-4.021 4.02L720 9.507l-5.829 5.828-4.02-4.02Zm7.753 7.753-2.268-2.268-.732-.732L720 10.972l5.097 5.096-.732.732-2.268 2.268L720 21.164l-2.097-2.096Zm10.761 10.76L734.494 24l-5.829-5.829 4.022-4.02L742.536 24l-9.849 9.849-4.022-4.02ZM697.465 24l9.85-9.85 4.02 4.021L705.506 24l5.829 5.829-4.02 4.02-9.85-9.849Zm23.953-1.324-.093-.094-.639-.64 2.143-2.142 2.268-2.268.732-.732.639.64.094.092.64.64-.734.732-2.268 2.268-2.143 2.142-.639-.638Zm-5.617-1.504-2.268-2.268-.733-.733.64-.639.093-.093.64-.639.731.732 2.268 2.268 2.143 2.143-.64.639-.093.094-.638.638-2.143-2.142Zm11.4 7.192-2.268-2.268L722.836 24l2.097-2.097 2.268-2.267.732-.732 5.096 5.097-5.096 5.096-.732-.733ZM706.972 24l5.096-5.097.732.732 2.268 2.267L717.165 24l-2.097 2.097-2.268 2.267-.732.733L706.972 24Zm18.125 6.467-2.268-2.268-2.143-2.143.64-.639.092-.093.64-.639 2.142 2.142 2.268 2.269.733.732-.64.639-.093.093-.64.639-.731-.732Zm-11.564.093-.094-.093-.639-.64.733-.731 2.268-2.27 2.143-2.14.638.638.094.093.639.64-2.143 2.142-2.268 2.268-.732.732-.639-.64Zm1.371 1.372.732-.733 2.268-2.268 2.097-2.096 2.095 2.096 2.269 2.268.732.733L720 37.03l-5.096-5.096Zm10.925.732 4.02 4.021-9.848 9.849-9.85-9.849 4.021-4.02 5.83 5.827 5.827-5.828ZM739.543 3.43h-7.201v1.029h7.2v7.2h1.03v-8.23h-1.03Zm-37.994 0h-2.12v8.229h1.03v-7.2h7.2v-1.03h-6.11Zm37.994 32.913v7.197h-7.201v1.03h8.23v-8.228h-1.03Zm-40.113 0v8.228h8.229v-1.03h-7.2v-7.198h-1.03Z"/></g></g></svg>